<?xml version="1.0" encoding="UTF-8"?>
<svg width="191px" height="32px" viewBox="0 0 191 32" version="1.1" xmlns="http://www.w3.org/2000/svg" xmlns:xlink="http://www.w3.org/1999/xlink">
    <title>MyWaterAdmin_logo</title>
    <defs>
        <path d="M157.368864,19.6521183 C157.75539,19.6521183 157.998759,19.3944341 157.998759,18.9792762 L157.998759,14.0116972 C157.998759,12.6087499 157.068232,11.8643288 155.407601,11.8643288 C154.362548,11.8643288 152.873706,12.4226446 152.873706,13.210013 C152.873706,13.482013 153.059811,13.7253814 153.446338,13.7253814 C153.990338,13.7253814 154.205075,12.9523288 155.407601,12.9523288 C156.223601,12.9523288 156.753285,13.2672762 156.753285,13.9114867 L156.753285,14.8563288 L156.581496,14.8563288 C154.634548,14.8563288 151.971811,15.0424341 151.971811,17.4188551 C151.971811,18.9792762 153.231601,19.6521183 154.605917,19.6521183 C155.364653,19.6521183 156.152022,19.3658025 156.710338,18.650013 L156.738969,18.6786446 L156.738969,18.9792762 C156.738969,19.3944341 156.982338,19.6521183 157.368864,19.6521183 Z M154.834969,18.5641183 C154.004653,18.5641183 153.231601,18.2491709 153.231601,17.4188551 C153.231601,15.8298025 154.877917,15.8298025 156.481285,15.8298025 L156.753285,15.8298025 L156.753285,16.545592 C156.753285,17.8769604 155.908653,18.5641183 154.834969,18.5641183 Z M165.27118,19.6521183 C165.657706,19.6521183 165.901075,19.3944341 165.901075,18.9792762 L165.901075,9.96032882 C165.901075,9.54517092 165.657706,9.28748671 165.27118,9.28748671 C164.884653,9.28748671 164.641285,9.54517092 164.641285,9.96032882 L164.641285,12.8950657 L164.612653,12.8950657 C164.28339,12.4226446 163.581917,11.8643288 162.579811,11.8643288 C160.518338,11.8643288 159.330127,13.7396972 159.330127,15.7582236 C159.330127,17.7767499 160.518338,19.6521183 162.579811,19.6521183 C163.581917,19.6521183 164.254759,19.2942236 164.612653,18.6070657 L164.641285,18.6070657 L164.641285,18.9792762 C164.641285,19.3944341 164.884653,19.6521183 165.27118,19.6521183 Z M162.680022,18.5641183 C161.133917,18.5641183 160.589917,17.0466446 160.589917,15.7582236 C160.589917,14.4698025 161.133917,12.9523288 162.680022,12.9523288 C164.226127,12.9523288 164.770127,14.4698025 164.770127,15.7582236 C164.770127,17.0466446 164.226127,18.5641183 162.680022,18.5641183 Z M177.267811,19.6521183 C177.654338,19.6521183 177.897706,19.3944341 177.897706,18.9792762 L177.897706,14.7561183 C177.897706,12.6087499 176.42318,11.8643288 175.249285,11.8643288 C174.146969,11.8643288 173.474127,12.3510657 172.915811,13.1527499 C172.34318,12.1792762 171.570127,11.8643288 170.825706,11.8643288 C169.680443,11.8643288 169.208022,12.4083288 168.90739,12.7948551 L168.878759,12.7662236 L168.878759,12.5371709 C168.878759,12.122013 168.63539,11.8643288 168.248864,11.8643288 C167.862338,11.8643288 167.618969,12.122013 167.618969,12.5371709 L167.618969,18.9792762 C167.618969,19.3944341 167.862338,19.6521183 168.248864,19.6521183 C168.63539,19.6521183 168.878759,19.3944341 168.878759,18.9792762 L168.878759,14.7131709 C168.878759,13.6251709 169.480022,12.9523288 170.496443,12.9523288 C171.52718,12.9523288 172.128443,13.6251709 172.128443,14.7131709 L172.128443,18.9792762 C172.128443,19.3944341 172.371811,19.6521183 172.758338,19.6521183 C173.144864,19.6521183 173.388232,19.3944341 173.388232,18.9792762 L173.388232,14.7131709 C173.388232,13.6251709 173.989496,12.9523288 175.005917,12.9523288 C176.036653,12.9523288 176.637917,13.6251709 176.637917,14.7131709 L176.637917,18.9792762 C176.637917,19.3944341 176.881285,19.6521183 177.267811,19.6521183 Z M180.188232,10.833592 C180.617706,10.833592 180.961285,10.490013 180.961285,10.0605393 C180.961285,9.63106566 180.617706,9.28748671 180.188232,9.28748671 C179.758759,9.28748671 179.41518,9.63106566 179.41518,10.0605393 C179.41518,10.490013 179.758759,10.833592 180.188232,10.833592 Z M180.188232,19.6521183 C180.574759,19.6521183 180.818127,19.3944341 180.818127,18.9792762 L180.818127,12.5371709 C180.818127,12.122013 180.574759,11.8643288 180.188232,11.8643288 C179.801706,11.8643288 179.558338,12.122013 179.558338,12.5371709 L179.558338,18.9792762 C179.558338,19.3944341 179.801706,19.6521183 180.188232,19.6521183 Z M187.890127,19.6521183 C188.276653,19.6521183 188.520022,19.3944341 188.520022,18.9792762 L188.520022,14.7561183 C188.520022,12.6087499 187.045496,11.8643288 185.871601,11.8643288 C185.112864,11.8643288 184.325496,12.1506446 183.76718,12.8664341 L183.738548,12.8378025 L183.738548,12.5371709 C183.738548,12.122013 183.49518,11.8643288 183.108653,11.8643288 C182.722127,11.8643288 182.478759,12.122013 182.478759,12.5371709 L182.478759,18.9792762 C182.478759,19.3944341 182.722127,19.6521183 183.108653,19.6521183 C183.49518,19.6521183 183.738548,19.3944341 183.738548,18.9792762 L183.738548,14.8276972 C183.738548,13.4963288 184.669075,12.9523288 185.49939,12.9523288 C186.329706,12.9523288 187.260232,13.4963288 187.260232,14.8276972 L187.260232,18.9792762 C187.260232,19.3944341 187.503601,19.6521183 187.890127,19.6521183 Z" id="path-1"></path>
    </defs>
    <g id="Page-1" stroke="none" stroke-width="1" fill="none" fill-rule="evenodd">
        <g id="MyWaterAdmin_logo">
            <g id="Group-2" transform="translate(0.000000, -0.000000)">
                <g id="Group-3">
                    <path d="M18.7842055,17.1175721 C18.7128578,18.5262757 18.2728719,19.8918386 17.50798,21.0785318 C16.46757,22.7569292 14.7675266,23.9223726 12.8228946,24.290333 C10.8782627,24.6582935 8.86800147,24.1949086 7.28289172,23.0133083 C3.92329898,20.4227137 3.11306465,15.6995727 5.41822689,12.1435208 C6.15158691,11.0054696 7.18546492,10.0909181 8.40627586,9.50034194 L8.65082206,9.38608348 L8.97943103,9.25659057 L17.5767586,5.9050093 C17.8599083,5.80578669 18.1740281,5.85348592 18.4146896,6.03224952 C18.6553512,6.21101311 18.7908857,6.49740888 18.7765634,6.79622523 L18.7765634,16.1349494 C18.7956598,16.4469658 18.7956598,16.7598523 18.7765634,17.0718687 L18.7842055,17.1175721 Z M22.5517455,16.0283082 L22.5517455,1.0071303 C22.5653848,0.703905984 22.4258561,0.4140021 22.1800467,0.234838218 C21.9342373,0.0556743362 21.6147759,0.0110325672 21.3290145,0.115914372 L7.64206896,5.53176502 L7.14533448,5.72219577 L6.7708731,5.9050093 C4.8502997,6.80970029 3.22415399,8.2352126 2.07864276,10.0183136 C-1.4290669,15.4570159 -0.0229262069,23.1199495 5.13547034,26.77622 C7.57166101,28.4895176 10.6101418,29.1225511 13.5308532,28.5253042 C16.4515645,27.9280572 18.9945475,26.1536879 20.5571655,23.6226867 C21.7395329,21.7990971 22.4195292,19.6974347 22.5288193,17.5289025 L22.5288193,17.4527302 C22.5555723,16.9757562 22.5555723,16.497665 22.5288193,16.020691 L22.5517455,16.0283082 Z" id="Fill-1" fill="#3676BB"></path>
                    <path d="M11.4631034,20.2558709 C10.6157616,20.2300127 9.813482,19.8694929 9.2329637,19.2537148 C8.65244541,18.6379366 8.34130339,17.8174071 8.36806551,16.9728447 C8.3659499,16.3827762 8.51875622,15.8024239 8.81130551,15.2894369 L8.87244206,15.1904129 C8.89599521,15.1445248 8.92416048,15.1011381 8.95650482,15.06092 L11.4631034,11.2523049 L13.8932814,14.9466615 C13.9708592,15.0474026 14.0398768,15.1544144 14.0996172,15.2665852 L14.0996172,15.2665852 C14.3957566,15.7839997 14.5511798,16.3695374 14.5504993,16.9652275 C14.6063247,18.7224804 13.2258709,20.1938114 11.4631034,20.2558709" id="Fill-4" fill="#69B2E2"></path>
                </g>
                <g id="Group" transform="translate(37.133997, 6.780991)" fill="#3676BB">
                    <path d="M20.2842624,18.4055464 C19.9172504,18.7783514 19.4170628,18.9881331 18.8951867,18.9881331 C18.3733107,18.9881331 17.8731231,18.7783514 17.5061111,18.4055464 C17.1384609,17.9822761 16.9471372,17.4330088 16.9718512,16.8717508 L16.9718512,10.0463607 C17.0074448,9.35984819 16.7931181,8.68379055 16.3689007,8.14445427 C15.9640976,7.6596874 15.3570022,7.39298355 14.7279597,7.42357037 C14.0916838,7.38927259 13.4760683,7.65599765 13.0641218,8.14445427 C12.6399044,8.68379055 12.4255777,9.35984819 12.4611713,10.0463607 L12.4611713,16.8717508 C12.4858854,17.4330088 12.2945616,17.9822761 11.9269115,18.4055464 C11.5598994,18.7783514 11.0597119,18.9881331 10.5378358,18.9881331 C10.0159597,18.9881331 9.51577215,18.7783514 9.1487601,18.4055464 C8.78383454,17.9806877 8.59290193,17.4325433 8.61450022,16.8717508 L8.61450022,10.0463607 C8.64879074,9.36125811 8.43758196,8.68649394 8.01918207,8.14445427 C7.57623715,7.68381032 6.96610066,7.4236734 6.32863117,7.4236734 C5.69116168,7.4236734 5.08102518,7.68381032 4.63808027,8.14445427 C4.26019095,8.7037828 4.0727518,9.37104557 4.10382039,10.0463607 L4.10382039,16.8717508 C4.12853441,17.4330088 3.93721067,17.9822761 3.56956051,18.4055464 C3.20385943,18.7778952 2.70493268,18.9874946 2.18430097,18.9874946 C1.66366925,18.9874946 1.1647425,18.7778952 0.799041423,18.4055464 C0.431391265,17.9822761 0.240067519,17.4330088 0.264781544,16.8717508 L0.264781544,6.36525145 C0.240067519,5.80399352 0.431391265,5.25472617 0.799041423,4.83145592 C1.15580167,4.44361743 1.66280843,4.23088245 2.18811711,4.24861362 C2.63203039,4.23021998 3.06439401,4.39348173 3.38638569,4.7010833 C3.69417003,5.00856749 3.89036157,5.41093846 3.94354242,5.84376097 C4.84409198,4.80746512 6.15413128,4.22367362 7.52308361,4.24861362 C9.0814572,4.21748695 10.5601981,4.93902267 11.4995036,6.18886497 C12.0240216,5.57175179 12.6783254,5.07931955 13.4152068,4.74709717 C14.0791936,4.43039267 14.8021777,4.25792374 15.5369818,4.24094464 C16.2623389,4.23471989 16.9839487,4.34607132 17.6740213,4.57071068 C18.2855313,4.77910432 18.8470263,5.11344182 19.3225946,5.55233982 C19.7962844,6.00344205 20.1661703,6.55308622 20.406379,7.16282513 C20.6793664,7.87152087 20.8116032,8.62707057 20.7956255,9.38682865 L20.7956255,16.8717508 C20.8172237,17.4325433 20.6262911,17.9806877 20.2613656,18.4055464" id="Fill-6"></path>
                    <path d="M34.785602,5.88977484 C34.8035661,6.2369217 34.7408526,6.58350419 34.6024272,6.90207989 L28.1684118,22.9379122 C28.0144008,23.3326251 27.7834561,23.6924407 27.4891385,23.9962311 C27.1894042,24.2997328 26.7771935,24.463742 26.3519282,24.4487008 C25.7940492,24.4989232 25.2406598,24.3126465 24.8254714,23.9348793 C24.5129177,23.6428869 24.3312235,23.2362587 24.3217407,22.8075395 C24.3210641,22.6137094 24.3441344,22.4205325 24.3904312,22.2323662 C24.431294,22.0465069 24.4874574,21.8643811 24.5583415,21.6878688 L26.2450762,17.5542899 L22.0320555,6.90207989 C21.9782516,6.75383054 21.9323921,6.60279079 21.8946743,6.44961021 C21.8565663,6.27589223 21.8386379,6.09831945 21.8412484,5.92045075 C21.841407,5.69139399 21.9019773,5.466471 22.0167909,5.26858765 C22.1273495,5.06624917 22.2749504,4.88671547 22.4518311,4.73942819 C22.6256534,4.59006544 22.82469,4.47318612 23.0395169,4.3943242 C23.2360352,4.31458647 23.4458002,4.27295219 23.6577319,4.27162055 C24.0846131,4.24761231 24.5077348,4.3633193 24.8636328,4.60138659 C25.2151233,4.84577562 25.4819382,5.19430266 25.6268612,5.59835369 L28.2676315,12.9375653 L31.0992088,5.59835369 C31.2459082,5.19528233 31.5123448,4.84724951 31.8624372,4.60138659 C32.2082817,4.35724889 32.6228976,4.23092222 33.0454412,4.24094464 C33.257373,4.24227628 33.467138,4.28391056 33.6636562,4.36364829 C33.8784832,4.44251021 34.0775198,4.55938952 34.2513421,4.70875228 C34.4282228,4.85603956 34.5758237,5.03557326 34.6863823,5.23791174 C34.8044226,5.43442486 34.8652403,5.66026641 34.8620535,5.88977484" id="Fill-9"></path>
                    <path d="M62.3839409,6.13518212 C62.3814001,6.35665473 62.3453713,6.5764527 62.2770889,6.78704522 C62.2083983,7.00944558 62.1168109,7.27019082 62.009959,7.55394299 L58.6746509,17.0481373 C58.5058571,17.5723056 58.2184925,18.0500493 57.8350996,18.4438913 C57.434708,18.8184193 56.9008408,19.014743 56.3544365,18.9883887 C55.8404405,19.0105436 55.3359407,18.8442939 54.9348317,18.520581 C54.5643434,18.163003 54.3000937,17.7089635 54.1716033,17.2091859 L52.1948418,10.8976172 L52.1414158,10.8976172 L50.1646542,17.2091859 C50.0384534,17.7099086 49.7738565,18.1645446 49.4014258,18.520581 C49.0033394,18.8444017 48.5011512,19.0107841 47.9894533,18.9883887 C47.4426468,19.0174128 46.9077739,18.8207192 46.5087902,18.4438913 C46.1230771,18.0504928 45.833129,17.5727966 45.6616067,17.0481373 L42.3568277,7.5846189 C42.2340924,7.2643705 42.1321154,6.93647534 42.0515363,6.60298976 C41.983856,6.33481795 41.9505135,6.05906347 41.9522472,5.78240915 C41.953445,5.35597884 42.1506505,4.95401004 42.4865765,4.69341432 C42.8807789,4.38039243 43.3736543,4.21984599 43.8756522,4.24094464 C44.3008091,4.22784871 44.7142785,4.38192558 45.0281271,4.67040739 C45.3371132,4.96846044 45.5656072,5.34055878 45.6921358,5.75173324 L47.981821,13.2059795 L48.035247,13.2059795 L50.2791385,5.91278177 C50.4047072,5.46062983 50.6318744,5.04346609 50.9431472,4.69341432 C51.2899733,4.37104631 51.7541025,4.20726491 52.2253709,4.24094464 C52.6970132,4.20443288 53.162239,4.36860124 53.5075946,4.69341432 C53.8216154,5.04270898 54.0514261,5.4599313 54.1792356,5.91278177 L56.4154948,13.2059795 L56.4689208,13.2059795 L58.758606,5.75173324 C58.8792607,5.33790439 59.108633,4.96437588 59.4226147,4.67040739 C59.7341216,4.38309682 60.1447805,4.2290471 60.5674573,4.24094464 C61.0758745,4.22028289 61.5728871,4.3958968 61.956533,4.73175921 C62.3251406,5.08610337 62.5204447,5.5851212 62.4907928,6.09683724" id="Fill-12"></path>
                    <path d="M71.9166636,12.3317161 L70.1154445,12.3317161 C69.5487339,12.3254188 68.9830632,12.3820006 68.4287098,12.5004336 C67.9666208,12.595477 67.5360068,12.8065425 67.1770152,13.1139518 C66.8273934,13.456261 66.6458658,13.9361142 66.6809167,14.425347 C66.673156,14.6611265 66.7428951,14.8929111 66.8793561,15.084879 C67.0228087,15.2668086 67.2054835,15.413651 67.413616,15.5143418 C67.6560305,15.6250431 67.9130984,15.6999512 68.1768444,15.7367421 C68.4543338,15.7828751 68.7351338,15.8059601 69.0163956,15.8057629 C69.8308673,15.8733291 70.6362979,15.5952181 71.2373903,15.0388652 C71.7314209,14.4464416 71.9800621,13.6859501 71.9319281,12.9145584 L71.9166636,12.3317161 Z M75.5954244,16.9331027 C75.6088719,17.4617794 75.4297455,17.9771986 75.0916937,18.3825394 C74.7513013,18.7813675 74.2479845,19.0017444 73.7255149,18.9807197 C73.3311154,18.9835148 72.9451782,18.8658398 72.6188337,18.6432847 C72.2369895,18.3397526 71.9856498,17.9005385 71.9166636,17.4162483 C71.7452612,17.6875207 71.5221959,17.9220834 71.2602871,18.1064562 C70.9755056,18.3016094 70.6710833,18.4661194 70.3520453,18.5972708 C70.0184336,18.7266208 69.6734649,18.82419 69.321687,18.888692 C68.9890734,18.9480342 68.6520363,18.9788212 68.3142255,18.9807197 C67.5866338,18.9871636 66.8618636,18.88903 66.1619214,18.6892985 C65.5535705,18.5134373 64.9856186,18.2189756 64.4904512,17.8227041 C64.025162,17.4351246 63.6522199,16.9477069 63.3990346,16.3962742 C63.1226392,15.7743839 62.9870855,15.0985958 63.0021559,14.417678 C62.9508942,13.4655088 63.2588664,12.5289345 63.864604,11.7948876 C64.4561448,11.1150482 65.2023774,10.5888585 66.0398049,10.2610921 C66.9538749,9.90736297 67.9116167,9.68032147 68.8866468,9.58622207 C69.8398045,9.48262914 70.7976755,9.42887382 71.7563856,9.42517354 L71.7563856,8.43587542 C71.7857258,8.11175754 71.6082716,7.80433111 71.3137131,7.66897765 C70.9223126,7.49664985 70.4964651,7.4178962 70.0696508,7.43890832 C69.6087759,7.42664723 69.1492336,7.49409409 68.7111043,7.63830174 C68.3871741,7.75341309 68.0773428,7.9052142 67.7875979,8.09077143 L67.0930601,8.54324111 C66.8911847,8.67561559 66.6548343,8.74499372 66.4137868,8.74263453 C65.9254317,8.78706456 65.4455659,8.59305417 65.1239308,8.22114405 C64.876487,7.90921837 64.7395261,7.52334429 64.7346843,7.12448024 C64.7480841,6.70005143 64.9360003,6.30019788 65.2536796,6.02014746 C65.6389399,5.64972012 66.0792545,5.34182925 66.5588002,5.10753912 C67.6537654,4.57122285 68.8517653,4.28075045 70.0696508,4.2562826 C71.5202965,4.16458935 72.9606321,4.55537657 74.1681873,5.36828436 C75.1338147,6.12360231 75.6675735,7.30810601 75.5954244,8.53557213 L75.5954244,16.9331027 Z" id="Fill-14"></path>
                    <path d="M85.3647479,6.23487883 C85.4129227,6.72832985 85.2053768,7.21203544 84.8152235,7.5155981 C84.4373194,7.77909241 83.9851179,7.91352306 83.5253675,7.89904698 L82.4263186,7.89904698 L82.4263186,16.8717508 C82.4510326,17.4330088 82.2597089,17.9822761 81.8920587,18.4055464 C81.5263576,18.7778952 81.0274309,18.9874946 80.5067992,18.9874946 C79.9861675,18.9874946 79.4872407,18.7778952 79.1215396,18.4055464 C78.7538895,17.9822761 78.5625657,17.4330088 78.5872798,16.8717508 L78.5872798,7.89904698 L77.732464,7.89904698 C77.2797793,7.92437311 76.8362761,7.76383364 76.5036662,7.45424628 C76.1928438,7.12744938 76.0299312,6.68630291 76.0533615,6.23487883 C76.0397692,5.78601785 76.2142014,5.35201409 76.5341954,5.03851832 C76.8508951,4.72019187 77.2847587,4.54803348 77.732464,4.5630417 L78.5872798,4.5630417 L78.5872798,2.3006933 C78.560162,1.73908226 78.7517912,1.18893782 79.1215396,0.766897765 C79.4872407,0.39454891 79.9861675,0.18494953 80.5067992,0.18494953 C81.0274309,0.18494953 81.5263576,0.39454891 81.8920587,0.766897765 C82.2618071,1.18893782 82.4534364,1.73908226 82.4263186,2.3006933 L82.4263186,4.60138659 L83.5253675,4.60138659 C83.9822441,4.59200846 84.4314624,4.72021052 84.8152235,4.96949752 C85.2103326,5.27943493 85.4181291,5.7724243 85.3647479,6.27322372" id="Fill-16"></path>
                    <path d="M94.6837667,10.3377819 C94.6047365,9.55616958 94.2752995,8.82146473 93.7449957,8.24415098 C93.1808137,7.67829959 92.4039154,7.3799861 91.6079562,7.42357037 C90.8224192,7.3973062 90.0625692,7.70660854 89.5167104,8.27482689 C88.9750169,8.83299691 88.6408597,9.56138747 88.5703072,10.3377819 L94.6837667,10.3377819 Z M98.4999087,11.1890384 C98.5361366,11.6489581 98.3939221,12.105133 98.1030299,12.4620887 C97.7521638,12.774983 97.2878962,12.927706 96.8208062,12.8838825 L88.64663,12.8838825 C88.7275063,13.7360776 89.1839758,14.5070836 89.8906923,14.9851823 C90.6069042,15.4322068 91.4366197,15.6612758 92.2795972,15.6447144 C92.7481771,15.6508977 93.2138829,15.5703072 93.6534083,15.4069761 C94.0507024,15.255042 94.4381598,15.0783111 94.8135155,14.8778166 C95.1722328,14.6784232 95.5004211,14.5020367 95.8057124,14.3486572 C96.0562392,14.200057 96.3393454,14.1157704 96.6299991,14.1032499 C97.0517582,14.110229 97.449832,14.3004329 97.7214157,14.6247404 C98.0220214,14.9230327 98.1945926,15.3276347 98.2022496,15.7520801 C98.1792304,16.2097775 97.9727287,16.6385996 97.6298283,16.9407716 C97.1974921,17.3667995 96.696965,17.716779 96.1491652,17.9760836 C95.5038658,18.3089222 94.8226789,18.5662387 94.1189777,18.7429814 C93.4035637,18.9295416 92.6676239,19.0248749 91.9285122,19.0267336 C90.9126151,19.0192613 89.9084254,18.8080716 88.9748183,18.4055464 C88.1143125,18.0587495 87.3346853,17.5364993 86.6851331,16.8717508 C86.0491307,16.2090105 85.5486736,15.427358 85.2121023,14.5710575 C84.8594847,13.635417 84.6834818,12.6419417 84.6931069,11.6415081 C84.6891543,10.6846431 84.8625643,9.73540469 85.20447,8.84233124 C85.5481727,7.96963337 86.0502465,7.16869425 86.6851331,6.48028612 C87.2955114,5.79852982 88.0349776,5.24582626 88.860334,4.85446286 C89.731053,4.44163456 90.6833763,4.23190265 91.6461177,4.24094464 C92.6263342,4.22957579 93.5957434,4.44749437 94.477695,4.87746979 C95.2832919,5.28935798 96.0054261,5.84851675 96.6071022,6.52629998 C97.2017175,7.18465543 97.6770085,7.94254794 98.0114425,8.76564146 C98.3282858,9.5342263 98.4941555,10.357145 98.4999087,11.1890384 L98.4999087,11.1890384 Z" id="Fill-18"></path>
                    <path d="M108.292129,6.2808927 C108.31221,6.55154188 108.242423,6.82124383 108.09369,7.04779046 C107.952044,7.231494 107.775667,7.38526243 107.574694,7.50026015 C107.331847,7.63342395 107.076114,7.74134828 106.811466,7.82235721 C106.519519,7.91212933 106.236025,8.02761185 105.964282,8.1674612 C105.681888,8.29016484 105.399493,8.42053746 105.124731,8.55857906 C104.851932,8.69747767 104.595855,8.86730085 104.361503,9.06473159 C104.141143,9.25836851 103.959781,9.49266861 103.827243,9.75493958 C103.689655,10.0525257 103.621771,10.3778373 103.628804,10.7058928 L103.628804,16.8717508 C103.653518,17.4330088 103.462194,17.9822761 103.094544,18.4055464 C102.737783,18.7933849 102.230777,19.0061198 101.705468,18.9883887 C101.180716,19.0030861 100.674908,18.7908541 100.316392,18.4055464 C99.9542197,17.9795439 99.7660568,17.4315221 99.7897647,16.8717508 L99.7897647,6.13518212 C99.7516006,5.58292999 99.9854828,5.04700035 100.415612,4.7010833 C100.797876,4.39614731 101.270822,4.22874044 101.758894,4.22560669 C102.220627,4.21330097 102.677012,4.32728296 103.079279,4.55537273 C103.478191,4.84508115 103.688722,5.32986615 103.628804,5.82075404 L103.682229,5.82075404 C103.984047,5.34693076 104.378778,4.93986493 104.842337,4.62439353 C105.302638,4.34729629 105.832463,4.20887935 106.368793,4.22560669 C106.893785,4.22366498 107.395407,4.4435702 107.751079,4.83158461 C108.106751,5.21959902 108.283706,5.73997691 108.238703,6.26555474" id="Fill-20"></path>
                </g>
            </g>
            <g id="admin" fill-rule="nonzero">
                <use fill="#000000" xlink:href="#path-1"></use>
                <use fill="#0092CF" xlink:href="#path-1"></use>
            </g>
        </g>
    </g>
</svg>